<?xml version="1.0" encoding="UTF-8" standalone="no"?>
<!-- Created with Inkscape (http://www.inkscape.org/) -->

<svg
   xmlns:dc="http://purl.org/dc/elements/1.1/"
   xmlns:cc="http://creativecommons.org/ns#"
   xmlns:rdf="http://www.w3.org/1999/02/22-rdf-syntax-ns#"
   xmlns:svg="http://www.w3.org/2000/svg"
   xmlns="http://www.w3.org/2000/svg"
   xmlns:xlink="http://www.w3.org/1999/xlink"
   xmlns:sodipodi="http://sodipodi.sourceforge.net/DTD/sodipodi-0.dtd"
   xmlns:inkscape="http://www.inkscape.org/namespaces/inkscape"
   width="14"
   height="22"
   id="svg3330"
   version="1.1"
   inkscape:version="0.91 r13725"
   sodipodi:docname="audio-input-microphone-none-panel.svg">
  <defs
     id="defs3332">
    <linearGradient
       id="linearGradient3587-6-5-3-0">
      <stop
         id="stop3589-9-2-2-7"
         style="stop-color:#000000;stop-opacity:1"
         offset="0" />
      <stop
         id="stop3591-7-4-73-6"
         style="stop-color:#363636;stop-opacity:1"
         offset="1" />
    </linearGradient>
    <linearGradient
       inkscape:collect="always"
       xlink:href="#linearGradient3587-6-5-3-0"
       id="linearGradient3298"
       gradientUnits="userSpaceOnUse"
       gradientTransform="matrix(0.36777741,0,0,0.48892885,-27.556707,-3.3865895)"
       x1="97.04393"
       y1="-0.079084992"
       x2="97.04393"
       y2="34.770058" />
  </defs>
  <sodipodi:namedview
     id="base"
     pagecolor="#ffffff"
     bordercolor="#666666"
     borderopacity="1.0"
     inkscape:pageopacity="0.0"
     inkscape:pageshadow="2"
     inkscape:zoom="7.8481082"
     inkscape:cx="-47.330724"
     inkscape:cy="-3.5112267"
     inkscape:current-layer="layer1"
     showgrid="true"
     inkscape:grid-bbox="true"
     inkscape:document-units="px"
     inkscape:window-width="1863"
     inkscape:window-height="1056"
     inkscape:window-x="57"
     inkscape:window-y="24"
     inkscape:window-maximized="1" />
  <metadata
     id="metadata3335">
    <rdf:RDF>
      <cc:Work
         rdf:about="">
        <dc:format>image/svg+xml</dc:format>
        <dc:type
           rdf:resource="http://purl.org/dc/dcmitype/StillImage" />
        <dc:title></dc:title>
      </cc:Work>
    </rdf:RDF>
  </metadata>
  <g
     id="layer1"
     inkscape:label="Layer 1"
     inkscape:groupmode="layer"
     transform="translate(0,6)">
    <path
       style="color:#000000;display:inline;overflow:visible;visibility:visible;opacity:0.6;fill:#ffffff;fill-opacity:1;fill-rule:nonzero;stroke:none;stroke-width:1;marker:none;enable-background:accumulate"
       d="m 7.1019353,-2.9339257 c -1.5278784,0 -2.7579033,1.2300249 -2.7579033,2.75790348 l 0,7.35440912 c 0,1.5278785 1.2300249,2.7579036 2.7579033,2.7579036 1.5278786,0 2.7579032,-1.2300251 2.7579032,-2.7579036 l 0,-7.35440912 c 0,-1.52787858 -1.2300246,-2.75790348 -2.7579032,-2.75790348 z m -5.5158068,6.4351081 0,0.9193011 0.9193011,0 0,2.7579034 c 0,2.2281562 1.5788823,4.0831161 3.6772046,4.5103211 l 0,1.924787 -0.9193011,0 0,0.919301 3.6772046,0 0,-0.919301 -0.9193012,0 0,-1.924787 C 10.11956,11.261503 11.698441,9.4065431 11.698441,7.1783869 l 0,-2.7579034 0.919301,0 0,-0.9193011 -0.919301,0 -0.919301,0 0,3.6772045 c 0,2.0371714 -1.6400333,3.6772051 -3.6772047,3.6772051 -2.0371712,0 -3.6772046,-1.6400337 -3.6772046,-3.6772051 l 0,-3.6772045 -0.9193011,0 -0.9193011,0 z"
       id="path3122-6"
       inkscape:connector-curvature="0" />
    <path
       inkscape:connector-curvature="0"
       style="color:#000000;display:inline;overflow:visible;visibility:visible;opacity:1;fill:url(#linearGradient3298);fill-opacity:1;fill-rule:nonzero;stroke:none;stroke-width:1;marker:none;enable-background:accumulate"
       d="m 7.2370838,-3.4252565 c -1.4904422,0 -2.690329,1.1998868 -2.690329,2.69032915 l 0,7.17421115 c 0,1.4904424 1.1998868,2.6903292 2.690329,2.6903292 1.4904425,0 2.690329,-1.1998868 2.690329,-2.6903292 l 0,-7.17421115 c 0,-1.49044235 -1.1998865,-2.69032915 -2.690329,-2.69032915 z"
       id="path3122" />
    <path
       inkscape:connector-curvature="0"
       style="color:#000000;display:inline;overflow:visible;visibility:visible;opacity:1;fill:#000000;fill-opacity:1;fill-rule:nonzero;stroke:none;stroke-width:1;marker:none;enable-background:accumulate"
       d="m 1.8564255,2.8521781 0,0.8967766 0.8967764,0 0,2.6903291 c 0,2.1735618 1.5401964,3.9830712 3.5871056,4.3998102 l 0,1.877626 -0.8967764,0 0,0.896775 3.5871056,0 0,-0.896775 -0.8967764,0 0,-1.877626 C 10.180771,10.422355 11.720966,8.6128456 11.720966,6.4392838 l 0,-2.6903291 0.896776,0 0,-0.8967766 -0.896776,0 -0.896777,0 0,3.5871057 c 0,1.9872565 -1.5998486,3.5871062 -3.5871052,3.5871062 -1.9872563,0 -3.5871056,-1.5998497 -3.5871056,-3.5871062 l 0,-3.5871057 -0.8967763,0 -0.8967764,0 z"
       id="rect3004" />
  </g>
</svg>
