<?xml version="1.0" encoding="UTF-8" standalone="no"?>
<!-- Created with Inkscape (http://www.inkscape.org/) -->

<svg
   xmlns:dc="http://purl.org/dc/elements/1.1/"
   xmlns:cc="http://creativecommons.org/ns#"
   xmlns:rdf="http://www.w3.org/1999/02/22-rdf-syntax-ns#"
   xmlns:svg="http://www.w3.org/2000/svg"
   xmlns="http://www.w3.org/2000/svg"
   xmlns:sodipodi="http://sodipodi.sourceforge.net/DTD/sodipodi-0.dtd"
   xmlns:inkscape="http://www.inkscape.org/namespaces/inkscape"
   width="14"
   height="22"
   id="svg3330"
   version="1.1"
   inkscape:version="0.91 r13725"
   sodipodi:docname="xfce4-mixer-no-record.svg">
  <defs
     id="defs3332">
    <linearGradient
       id="linearGradient3587-6-5-3-0">
      <stop
         id="stop3589-9-2-2-7"
         style="stop-color:#000000;stop-opacity:1"
         offset="0" />
      <stop
         id="stop3591-7-4-73-6"
         style="stop-color:#363636;stop-opacity:1"
         offset="1" />
    </linearGradient>
  </defs>
  <sodipodi:namedview
     id="base"
     pagecolor="#ffffff"
     bordercolor="#666666"
     borderopacity="1.0"
     inkscape:pageopacity="0.0"
     inkscape:pageshadow="2"
     inkscape:zoom="5.5494505"
     inkscape:cx="-83.506507"
     inkscape:cy="4.2717743"
     inkscape:current-layer="layer1"
     showgrid="true"
     inkscape:grid-bbox="true"
     inkscape:document-units="px"
     inkscape:window-width="1863"
     inkscape:window-height="1056"
     inkscape:window-x="57"
     inkscape:window-y="24"
     inkscape:window-maximized="1" />
  <metadata
     id="metadata3335">
    <rdf:RDF>
      <cc:Work
         rdf:about="">
        <dc:format>image/svg+xml</dc:format>
        <dc:type
           rdf:resource="http://purl.org/dc/dcmitype/StillImage" />
        <dc:title></dc:title>
      </cc:Work>
    </rdf:RDF>
  </metadata>
  <g
     id="layer1"
     inkscape:label="Layer 1"
     inkscape:groupmode="layer"
     transform="translate(0,6)">
    <path
       style="color:#000000;display:inline;overflow:visible;visibility:visible;opacity:0.6;fill:#ffffff;fill-opacity:1;fill-rule:nonzero;stroke:none;stroke-width:1;marker:none;enable-background:accumulate"
       d="m 7.3153465,-2.2716007 c -1.4398789,0 -2.5990594,1.1591805 -2.5990594,2.59905946 l 0,6.93082504 c 0,1.439879 1.1591805,2.5990597 2.5990594,2.5990597 1.4398789,0 2.5990592,-1.1591807 2.5990592,-2.5990597 l 0,-6.93082504 c 0,-1.43987896 -1.1591803,-2.59905946 -2.5990592,-2.59905946 z m -5.1981187,6.064472 0,0.8663531 0.866353,0 0,2.5990594 c 0,2.0998235 1.4879451,3.8479452 3.4654126,4.2505462 l 0,1.813926 -0.8663531,0 0,0.866353 3.4654124,0 0,-0.866353 -0.866353,0 0,-1.813926 C 10.159168,11.106229 11.647113,9.3581073 11.647113,7.2582838 l 0,-2.5990594 0.866352,0 0,-0.8663531 -0.866352,0 -0.866354,0 0,3.4654125 c 0,1.9198386 -1.545574,3.4654122 -3.4654125,3.4654122 -1.9198385,0 -3.4654125,-1.5455736 -3.4654125,-3.4654122 l 0,-3.4654125 -0.8663532,0 -0.866353,0 z"
       id="path3122-6"
       inkscape:connector-curvature="0" />
    <path
       inkscape:connector-curvature="0"
       style="color:#000000;display:inline;overflow:visible;visibility:visible;opacity:0.912;fill:#000000;fill-opacity:0.86734694;fill-rule:nonzero;stroke:none;stroke-width:1;marker:none;enable-background:accumulate"
       d="m 7.3153465,-3.1379538 c -1.4398789,0 -2.5990594,1.1591804 -2.5990594,2.59905944 l 0,6.93082506 c 0,1.4398789 1.1591805,2.5990593 2.5990594,2.5990593 1.4398789,0 2.5990592,-1.1591804 2.5990592,-2.5990593 l 0,-6.93082506 c 0,-1.43987904 -1.1591803,-2.59905944 -2.5990592,-2.59905944 z"
       id="path3122" />
    <path
       inkscape:connector-curvature="0"
       style="color:#000000;display:inline;overflow:visible;visibility:visible;opacity:0.918;fill:#000000;fill-opacity:0.81122446;fill-rule:nonzero;stroke:none;stroke-width:1;marker:none;enable-background:accumulate"
       d="m 2.1172278,2.9265181 0,0.8663532 0.866353,0 0,2.5990594 c 0,2.0998234 1.4879451,3.8479443 3.4654126,4.2505443 l 0,1.813928 -0.8663531,0 0,0.866353 3.4654124,0 0,-0.866353 -0.866353,0 0,-1.813928 c 1.9774683,-0.4026 3.4654133,-2.1507209 3.4654133,-4.2505443 l 0,-2.5990594 0.866352,0 0,-0.8663532 -0.866352,0 -0.866354,0 0,3.4654126 c 0,1.9198386 -1.545574,3.4654128 -3.4654125,3.4654128 -1.9198385,0 -3.4654125,-1.5455742 -3.4654125,-3.4654128 l 0,-3.4654126 -0.8663532,0 -0.866353,0 z"
       id="rect3004" />
  </g>
</svg>
